<svg version="1.1" id="Layer_1" xmlns="http://www.w3.org/2000/svg" xmlns:xlink="http://www.w3.org/1999/xlink" x="0px" y="0px"
     width="100%" viewBox="0 0 500 500" enable-background="new 0 0 500 500" xml:space="preserve">
<path fill="#EF5B25" opacity="1.000000" stroke="none"
      d="
M500.645081,349.654846
	C501.000000,399.687561 501.000000,449.375122 501.000000,499.531342
	C499.104095,500.969116 497.069122,500.474365 495.108002,500.474854
	C382.367310,500.503021 269.626648,500.499542 156.885971,500.502991
	C154.888580,500.503052 152.890060,500.441956 150.446854,500.781860
	C101.526596,501.000000 53.053143,500.975769 4.579893,501.063385
	C1.826618,501.068359 0.899715,500.795288 0.901893,497.583557
	C1.013366,333.173828 1.015780,168.763992 0.890137,4.354288
	C0.887546,0.964183 2.058834,0.949506 4.642020,0.952945
	C52.782177,1.017041 100.922440,1.000000 149.531342,1.000000
	C151.930954,2.467068 152.243912,4.579103 152.341171,6.794569
	C152.480026,9.958016 152.445999,13.122629 152.446121,16.286875
	C152.450348,122.218925 152.446716,228.150986 152.451035,334.083038
	C152.451569,347.143158 152.857361,347.548309 165.929642,347.549011
	C273.527283,347.554657 381.124939,347.535248 488.722565,347.601929
	C492.609528,347.604340 496.753784,346.619659 500.645081,349.654846
z"/>
    <path fill="#EF5B25" opacity="1.000000" stroke="none"
          d="
M254.689362,1.215823
	C335.594727,1.000000 416.189545,1.032575 496.784027,0.895301
	C500.471619,0.889020 501.096649,1.755891 501.091431,5.276769
	C500.972595,85.205276 501.000000,165.134003 501.000000,245.531342
	C498.333527,253.481934 493.868042,254.560043 488.082458,248.854095
	C470.285187,231.301880 452.707428,213.528702 434.999603,195.886230
	C433.619995,194.511719 432.416168,192.866180 429.747833,191.853683
	C426.213867,235.172379 406.521118,268.476562 368.622375,289.607697
	C344.677917,302.958313 318.567230,306.406433 291.637909,301.076385
	C239.527283,290.762238 199.663727,246.177231 198.735184,189.153519
	C197.860931,135.462845 237.161041,77.717575 309.769745,72.061737
	C309.735138,69.750099 307.807129,68.729515 306.512909,67.429588
	C289.817474,50.660103 273.069824,33.942616 256.339783,17.207563
	C254.808197,15.675542 253.224640,14.186270 251.830505,12.529439
	C248.165405,8.173650 249.147339,3.986552 254.689362,1.215823
z"/>
    <path fill="#FFFEFE" opacity="1.000000" stroke="none"
          d="
M254.531342,1.000000
	C250.267609,6.679653 250.312317,8.136670 255.617355,13.448233
	C274.690979,32.545265 293.785339,51.621563 312.864227,70.713333
	C314.000366,71.850235 315.069489,73.054077 316.704224,74.796387
	C279.629120,75.581253 248.915970,88.779022 225.968002,117.490059
	C207.064850,141.140488 198.818008,168.417252 201.737213,198.636887
	C207.424683,257.513306 257.115448,302.087402 315.586395,300.975891
	C377.466797,299.799561 427.356293,250.328140 427.200317,186.092133
	C429.347198,186.160934 430.151306,188.055344 431.343353,189.242233
	C450.588226,208.403473 469.765472,227.632568 488.989014,246.815262
	C493.639374,251.455765 496.170868,251.315552 500.715729,246.207016
	C501.000000,280.354218 501.000000,314.708466 501.000000,349.531342
	C498.845123,349.900574 496.690216,349.714447 494.535339,349.714203
	C382.110779,349.700104 269.686249,349.701843 157.261703,349.701630
	C149.997940,349.701599 149.997711,349.700745 149.997726,342.208984
	C149.997787,228.785095 149.997910,115.361206 149.999008,1.468656
	C184.687561,1.000000 219.375122,1.000000 254.531342,1.000000
z"/>
    <path fill="#FEF5F1" opacity="1.000000" stroke="none"
          d="
M150.468658,501.000000
	C151.734863,499.039886 154.023346,500.052368 156.015869,500.051392
	C270.698120,499.993774 385.380402,500.000000 500.531342,500.000000
	C499.893555,502.091400 497.968292,500.936249 496.506775,500.937683
	C423.764099,501.008728 351.021393,501.000000 278.278656,501.000000
	C235.831543,501.000000 193.384430,501.000000 150.468658,501.000000
z"/>
</svg>