<?xml version="1.0" standalone="no"?>
<!DOCTYPE svg PUBLIC "-//W3C//DTD SVG 20010904//EN"
        "http://www.w3.org/TR/2001/REC-SVG-20010904/DTD/svg10.dtd">
<svg version="1.0" xmlns="http://www.w3.org/2000/svg"
     width="500.000000pt" height="500.000000pt" viewBox="0 0 500.000000 500.000000"
     preserveAspectRatio="xMidYMid meet">

    <g transform="translate(0.000000,500.000000) scale(0.100000,-0.100000)"
       fill="#FFFFFF" stroke="none">
        <path d="M2335 4844 c-16 -3 -79 -11 -139 -20 -357 -50 -742 -217 -1040 -452
-109 -85 -325 -306 -403 -412 -240 -325 -382 -677 -429 -1058 -22 -188 -15
-519 15 -677 60 -315 168 -586 335 -840 68 -103 199 -269 242 -307 18 -15 33
-2 344 319 179 184 351 363 382 398 l58 63 -38 -9 c-303 -68 -646 -138 -653
-133 -5 3 -9 10 -9 15 0 5 76 98 168 207 92 108 233 276 314 372 325 391 601
655 877 840 198 132 363 185 562 178 l106 -3 -24 51 c-69 152 -50 363 48 512
40 61 141 153 204 185 112 56 268 73 389 42 193 -50 343 -201 402 -400 32
-112 4 -299 -63 -413 -61 -104 -175 -192 -308 -237 -136 -46 -343 -21 -455 56
l-25 17 3 -80 c4 -91 -16 -202 -58 -330 -112 -337 -439 -759 -887 -1146 -70
-61 -202 -175 -293 -253 -263 -227 -447 -378 -565 -463 -60 -44 -114 -83 -119
-87 -16 -14 194 -139 354 -209 487 -216 1026 -253 1539 -105 353 101 682 297
951 565 181 180 310 360 425 595 163 330 228 614 228 990 0 507 -147 948 -454
1356 -282 374 -683 651 -1144 790 -210 63 -336 81 -590 84 -121 2 -233 1 -250
-1z"/>
    </g>
</svg>
